<svg viewBox="0 0 600 600" fill="none" xmlns="http://www.w3.org/2000/svg"><circle cx="300" cy="300" r="144" fill="#DE8927" stroke="#333" stroke-width="12"/><rect x="236" y="231" width="24" height="36" rx="12" fill="#333"/><rect x="340" y="231" width="24" height="36" rx="12" fill="#333"/><mask id="a" fill="#fff"><path fill-rule="evenodd" clip-rule="evenodd" d="M431.255 339L300 362.374 168.745 339H167.5c16.039 57.017 69.286 98.888 132.5 98.888S416.461 396.017 432.5 339h-1.245z"/></mask><path fill-rule="evenodd" clip-rule="evenodd" d="M431.255 339L300 362.374 168.745 339H167.5c16.039 57.017 69.286 98.888 132.5 98.888S416.461 396.017 432.5 339h-1.245z" fill="#DEDEDE"/><path d="M300 362.374l-.526 2.953.526.094.526-.094-.526-2.953zM431.255 339v-3h-.265l-.261.046.526 2.954zm-262.51 0l.526-2.954-.261-.046h-.265v3zm-1.245 0v-3h-3.96l1.072 3.812L167.5 339zm265 0l2.888.812L436.46 336h-3.96v3zm-131.974 26.327l131.255-23.373-1.052-5.908-131.255 23.374 1.052 5.907zm-132.307-23.373l131.255 23.373 1.052-5.907-131.255-23.374-1.052 5.908zm.526-5.954H167.5v6h1.245v-6zm-4.133 3.812c16.403 58.31 70.829 101.076 135.388 101.076v-6c-61.869 0-113.937-40.976-129.612-96.7l-5.776 1.624zM300 440.888c64.559 0 118.985-42.766 135.388-101.076l-5.776-1.624c-15.675 55.724-67.743 96.7-129.612 96.7v6zM432.5 336h-1.245v6h1.245v-6z" fill="#B06B1C" mask="url(#a)"/><circle cx="300" cy="360" r="12" fill="#333"/></svg>